<?xml version="1.0" standalone="no"?>
<!DOCTYPE svg PUBLIC "-//W3C//DTD SVG 20010904//EN"
 "http://www.w3.org/TR/2001/REC-SVG-20010904/DTD/svg10.dtd">
<svg version="1.0" xmlns="http://www.w3.org/2000/svg"
 width="232.000000pt" height="232.000000pt" viewBox="0 0 232.000000 232.000000"
 preserveAspectRatio="xMidYMid meet">
<metadata>
Created by potrace 1.11, written by Peter Selinger 2001-2013
</metadata>
<g transform="translate(0.000000,232.000000) scale(0.100000,-0.100000)"
fill="#000000" stroke="none">
<path d="M0 1160 l0 -1160 1160 0 1160 0 0 1160 0 1160 -1160 0 -1160 0 0
-1160z m877 528 c30 -31 50 -73 97 -200 l18 -48 72 0 c66 0 152 -11 197 -25
12 -4 36 19 84 80 74 95 129 141 182 151 29 5 39 2 63 -21 66 -63 77 -181 27
-281 -23 -47 -24 -51 -9 -89 9 -26 15 -79 16 -147 l1 -108 305 0 c225 0 309
-3 318 -12 8 -8 12 -58 12 -160 l0 -148 -35 0 -35 0 0 125 0 125 -1025 0
-1025 0 0 -125 0 -125 -35 0 -36 0 3 158 3 157 248 3 247 2 -6 43 c-3 23 -7
48 -10 55 -8 27 17 157 42 216 14 33 32 94 39 135 19 99 63 187 125 245 56 52
62 52 117 -6z"/>
<path d="M776 1601 c-34 -48 -61 -121 -71 -186 -4 -27 -21 -81 -37 -120 -36
-80 -47 -184 -29 -252 l12 -43 184 0 c178 0 185 1 185 20 0 13 -14 27 -42 41
-53 27 -50 23 -42 42 5 14 12 13 55 -8 57 -29 74 -30 124 -9 30 12 39 13 46 3
4 -7 6 -16 3 -20 -7 -11 -96 -39 -105 -33 -5 3 -9 -4 -9 -15 0 -21 4 -21 250
-21 l250 0 1 48 c3 91 -3 144 -20 195 -21 64 -21 64 6 108 13 20 28 58 34 86
10 44 10 55 -7 89 -10 21 -24 40 -31 41 -16 6 -77 -51 -130 -121 -26 -34 -59
-75 -75 -92 -29 -31 -30 -31 -70 -17 -54 18 -179 34 -252 32 -57 -3 -59 -2
-77 32 -10 19 -28 63 -40 99 -26 79 -59 140 -74 140 -7 0 -24 -17 -39 -39z
m102 -351 c27 -26 28 -64 2 -90 -24 -24 -77 -26 -102 -3 -22 20 -23 70 -1 95
22 24 74 23 101 -2z m460 -20 c27 -26 28 -64 2 -90 -24 -24 -77 -26 -102 -3
-22 20 -23 70 -1 95 22 24 74 23 101 -2z"/>
</g>
</svg>
